<?xml version="1.0" ?><svg style="enable-background:new 0 0 50 50;" version="1.1" viewBox="0 0 50 50" xml:space="preserve" xmlns="http://www.w3.org/2000/svg" xmlns:xlink="http://www.w3.org/1999/xlink"><g id="Layer_1"><path d="M25,38c7.168,0,13-5.832,13-13s-5.832-13-13-13s-13,5.832-13,13S17.832,38,25,38z M25,14c6.065,0,11,4.935,11,11   s-4.935,11-11,11s-11-4.935-11-11S18.935,14,25,14z"/><rect height="7" width="2" x="24" y="1"/><rect height="7" width="2" x="24" y="42"/><rect height="2" width="7" x="42" y="24"/><rect height="2" width="7" x="1" y="24"/><rect height="2" transform="matrix(0.7071 -0.7071 0.7071 0.7071 4.1413 31.0062)" width="7" x="35.996" y="9.505"/><rect height="2" transform="matrix(0.7071 -0.7071 0.7071 0.7071 -24.852 18.9973)" width="7" x="7.004" y="38.496"/><rect height="7" transform="matrix(0.7071 -0.7071 0.7071 0.7071 -16.3595 39.4958)" width="2" x="38.496" y="35.995"/><rect height="7" transform="matrix(0.7071 -0.7071 0.7071 0.7071 -4.3511 10.5042)" width="2" x="9.504" y="7.004"/></g><g/></svg>