<?xml version="1.0"?>
<svg xmlns="http://www.w3.org/2000/svg" height="512px" viewBox="0 -46 512 512" width="512px"><g><path d="m431.0625 102.148438 43.214844-43.214844-21.210938-21.214844-43.21875 43.21875c-13.742187-10.300781-30.085937-17.308594-47.847656-19.863281v-61.074219h-30v61.089844c-17.671875 2.539062-34.054688 9.5-47.871094 19.824218l-43.195312-43.191406-21.214844 21.210938 43.1875 43.1875c-5.816406 7.761718-10.605469 16.363281-14.121094 25.65625-14.164062-5.042969-29.347656-7.777344-45.050781-7.777344-71.136719 0-130.308594 54.605469-136.464844 123.039062-39.347656 10.214844-67.269531 45.800782-67.269531 86.960938 0 49.625 40.375 90 90 90h197c57.898438 0 105-47.101562 105-105 0-17.917969-4.519531-35.027344-12.671875-50.0625 10.976563-3.539062 21.296875-8.882812 30.566406-15.828125l43.171875 43.167969 21.210938-21.210938-43.175782-43.179687c10.546876-14.082031 17.34375-30.507813 19.832032-47.886719h61.066406v-30h-61.074219c-2.554687-17.761719-9.5625-34.105469-19.863281-47.851562zm-144.0625 287.851562h-197c-33.085938 0-60-26.914062-60-60 0-28.503906 20.109375-52.992188 47.980469-58.660156 7.433593 1.101562 32.074219-7.140625 55.445312 16.234375l21.214844-21.214844c-14.960937-14.957031-35.351563-24.199219-56.863281-26.007813 7.285156-50.988281 52.023437-90.351562 105.957031-90.351562 41.414063 0 78.183594 24.414062 95.085937 60.660156-3.902343-.4375-7.84375-.660156-11.824218-.660156-28.042969 0-54.410156 10.921875-74.242188 30.753906l21.210938 21.214844c14.167968-14.167969 33.003906-21.96875 53.035156-21.96875 40.496094 0 75 32.691406 75 75 0 41.355469-33.644531 75-75 75zm72.433594-151.023438c-6.890625-6.582031-15.464844-12.859374-25.054688-17.703124-8.722656-33.9375-30.136718-62.269532-58.464844-80.257813 10.113282-30.089844 38.535157-51.015625 71.085938-51.015625 41.355469 0 75 33.644531 75 75 0 36.757812-26.984375 68.03125-62.566406 73.976562zm0 0" data-original="#000000" class="active-path" data-old_color="#ff0000" fill="#ff0000"/></g> </svg>
