<?xml version="1.0"?>
<svg xmlns="http://www.w3.org/2000/svg" xmlns:xlink="http://www.w3.org/1999/xlink" version="1.1" id="Layer_1" x="0px" y="0px" viewBox="0 0 511.999 511.999" style="enable-background:new 0 0 511.999 511.999;" xml:space="preserve" width="512px" height="512px" class=""><g><g>
	<g>
		<g>
			<path d="M255.999,113.968c-28.427,0-51.554,23.127-51.554,51.552c0,28.428,23.127,51.556,51.554,51.556     s51.554-23.128,51.554-51.556C307.553,137.094,284.426,113.968,255.999,113.968z M255.999,201.283     c-19.718,0-35.76-16.043-35.76-35.762c0-19.717,16.042-35.759,35.76-35.759s35.76,16.041,35.76,35.759     C291.759,185.239,275.718,201.283,255.999,201.283z" data-original="#000000" class="active-path" data-old_color="#ffffff" fill="#ffffff"/>
			<path d="M364.952,453.64l-46.245-229.064c14.549-15.441,23.494-36.217,23.494-59.055c0-40.934-28.69-75.271-67.012-84.02v-7.622     h3.283c4.362,0,7.897-3.535,7.897-7.897V7.897c0-4.362-3.535-7.897-7.897-7.897h-44.945c-4.362,0-7.897,3.535-7.897,7.897v58.085     c0,4.362,3.535,7.897,7.897,7.897h3.283V81.5c-38.321,8.75-67.012,43.086-67.012,84.02c0,22.839,8.944,43.616,23.494,59.055     L147.048,453.64c-1.417,7.013-0.017,14.16,3.942,20.122c2.636,3.969,6.2,7.09,10.354,9.155l-3.543,19.794     c-0.769,4.293,2.089,8.396,6.382,9.164c0.47,0.084,0.939,0.124,1.4,0.124c3.751,0,7.08-2.684,7.764-6.507l3.586-20.03     c11.125-1.526,20.364-9.967,22.635-21.222l43.115-213.552c4.342,0.676,8.789,1.032,13.318,1.032     c4.528,0,8.976-0.356,13.318-1.032l43.114,213.55c2.269,11.256,11.508,19.698,22.635,21.224l3.585,20.03     c0.683,3.823,4.011,6.507,7.764,6.507c0.462,0,0.931-0.04,1.4-0.124c4.293-0.768,7.15-4.872,6.382-9.164l-3.543-19.794     c4.155-2.065,7.718-5.185,10.353-9.155C364.968,467.8,366.368,460.654,364.952,453.64z M241.423,15.793h29.151v42.291h-29.151     V15.793z M259.396,73.878v5.529c-1.129-0.044-2.257-0.086-3.397-0.086s-2.268,0.042-3.397,0.086v-5.529H259.396z      M184.086,461.117c-1.032,5.113-5.556,8.824-10.759,8.824c-0.731,0-1.47-0.074-2.197-0.221c-2.879-0.581-5.359-2.249-6.984-4.696     c-1.626-2.446-2.199-5.379-1.618-8.259l44.49-220.369c6.234,4.322,13.061,7.841,20.335,10.412L184.086,461.117z M255.999,235.929     c-38.823,0-70.408-31.586-70.408-70.409c0-38.822,31.584-70.407,70.408-70.407s70.408,31.585,70.408,70.407     C326.407,204.343,294.822,235.929,255.999,235.929z M347.852,465.024c-1.626,2.447-4.106,4.115-6.987,4.696     c-0.724,0.147-1.464,0.221-2.194,0.221c-5.202,0-9.728-3.71-10.759-8.825l-43.266-214.307c7.274-2.571,14.101-6.09,20.335-10.412     l44.49,220.369C350.051,459.645,349.477,462.577,347.852,465.024z" data-original="#000000" class="active-path" data-old_color="#ffffff" fill="#ffffff"/>
		</g>
	</g>
</g></g> </svg>
